<svg width="40" height="41" viewBox="0 0 40 41" fill="none" xmlns="http://www.w3.org/2000/svg">
<rect x="0.500244" y="1" width="39" height="39" rx="19.5" fill="white"/>
<rect x="0.500244" y="1" width="39" height="39" rx="19.5" stroke="#E4E7EC"/>
<g clip-path="url(#clip0_446_54777)">
<path d="M22.5003 24.6667V28H17.5003V24.6667M14.3337 24.6667H25.667C26.6004 24.6667 27.0671 24.6667 27.4236 24.485C27.7372 24.3252 27.9922 24.0703 28.152 23.7567C28.3337 23.4001 28.3337 22.9334 28.3337 22V15.6667C28.3337 14.7332 28.3337 14.2665 28.152 13.91C27.9922 13.5964 27.7372 13.3414 27.4236 13.1817C27.0671 13 26.6004 13 25.667 13H14.3337C13.4002 13 12.9335 13 12.577 13.1817C12.2634 13.3414 12.0084 13.5964 11.8486 13.91C11.667 14.2665 11.667 14.7332 11.667 15.6667V22C11.667 22.9334 11.667 23.4001 11.8486 23.7567C12.0084 24.0703 12.2634 24.3252 12.577 24.485C12.9335 24.6667 13.4002 24.6667 14.3337 24.6667Z" stroke="#344054" stroke-width="2" stroke-linecap="round" stroke-linejoin="round"/>
</g>
<defs>
<clipPath id="clip0_446_54777">
<rect width="20" height="20" fill="white" transform="translate(10.0002 10.5)"/>
</clipPath>
</defs>
</svg>
