<svg width="16" height="19" viewBox="0 0 16 19" fill="none" xmlns="http://www.w3.org/2000/svg">
<path d="M5.14421 4.99967C4.68397 4.99967 4.31087 5.37277 4.31087 5.83301C4.31087 6.29324 4.68397 6.66634 5.14421 6.66634H11.8109C12.2711 6.66634 12.6442 6.29324 12.6442 5.83301C12.6442 5.37277 12.2711 4.99967 11.8109 4.99967H5.14421Z" fill="#00A351"/>
<path d="M4.31087 9.99967C4.31087 9.53944 4.68397 9.16634 5.14421 9.16634H11.8109C12.2711 9.16634 12.6442 9.53944 12.6442 9.99967C12.6442 10.4599 12.2711 10.833 11.8109 10.833H5.14421C4.68397 10.833 4.31087 10.4599 4.31087 9.99967Z" fill="#00A351"/>
<path d="M5.14421 13.333C4.68397 13.333 4.31087 13.7061 4.31087 14.1663C4.31087 14.6266 4.68397 14.9997 5.14421 14.9997H7.36643C7.82666 14.9997 8.19976 14.6266 8.19976 14.1663C8.19976 13.7061 7.82666 13.333 7.36643 13.333H5.14421Z" fill="#00A351"/>
<path d="M9.58865 13.333C9.12841 13.333 8.75532 13.7061 8.75532 14.1663C8.75532 14.6266 9.12841 14.9997 9.58865 14.9997H11.8109C12.2711 14.9997 12.6442 14.6266 12.6442 14.1663C12.6442 13.7061 12.2711 13.333 11.8109 13.333H9.58865Z" fill="#00A351"/>
<path fill-rule="evenodd" clip-rule="evenodd" d="M11.3791 18.2507C11.4727 18.2741 11.5636 18.3077 11.65 18.3509C13.6382 19.345 15.9775 17.8993 15.9775 15.6763V4.16634C15.9775 2.32539 14.4852 0.833008 12.6442 0.833008H4.31087C2.46992 0.833008 0.977539 2.32539 0.977539 4.16634V15.6763C0.977539 17.8993 3.31687 19.345 5.30511 18.3509C5.39149 18.3077 5.48233 18.2741 5.57602 18.2507L8.07331 17.6264C8.33871 17.56 8.61636 17.56 8.88176 17.6264L11.3791 18.2507ZM2.64421 4.16634C2.64421 3.24587 3.3904 2.49967 4.31087 2.49967H12.6442C13.5647 2.49967 14.3109 3.24587 14.3109 4.16634V15.6763C14.3109 16.6603 13.2754 17.3002 12.3953 16.8602C12.2002 16.7626 11.9949 16.6867 11.7833 16.6338L9.28599 16.0095C8.75519 15.8768 8.19989 15.8768 7.66909 16.0095L5.1718 16.6338C4.96013 16.6867 4.7549 16.7626 4.55975 16.8602C3.67968 17.3002 2.64421 16.6603 2.64421 15.6763V4.16634Z" fill="#00A351"/>
</svg>
