<svg width="17" height="17" viewBox="0 0 17 17" fill="none" xmlns="http://www.w3.org/2000/svg">
<path fill-rule="evenodd" clip-rule="evenodd" d="M6.22854 1.33959C4.92679 0.037843 2.81625 0.0378457 1.5145 1.33959L1.06822 1.78587C0.452914 2.40118 0.0320579 3.32324 0.272109 4.32207C0.640119 5.85333 1.74753 8.64369 5.05003 11.9462C8.35253 15.2487 11.1429 16.3561 12.6742 16.7241C13.673 16.9642 14.5951 16.5433 15.2104 15.928L15.6566 15.4817C16.9584 14.18 16.9584 12.0694 15.6566 10.7677L14.8826 9.99362C13.8215 8.93257 12.1823 8.71128 10.8779 9.45301L10.7974 9.49875C10.2629 9.8027 9.64883 9.77785 9.2138 9.46302C8.86278 9.20898 8.52729 8.94164 8.29094 8.70529C8.05458 8.46894 7.78724 8.13345 7.53321 7.78242C7.21837 7.3474 7.19353 6.73333 7.49748 6.1988L7.54322 6.11835C8.28494 4.81394 8.06366 3.17471 7.00261 2.11366L6.22854 1.33959ZM2.69301 2.5181C3.34388 1.86723 4.39916 1.86723 5.05003 2.5181L5.8241 3.29217C6.35462 3.82269 6.46527 4.64231 6.0944 5.29452L6.04866 5.37496C5.46124 6.40801 5.44063 7.73374 6.18303 8.75956C6.45572 9.13636 6.78343 9.5548 7.11243 9.8838C7.44142 10.2128 7.85987 10.5405 8.23666 10.8132C9.26249 11.5556 10.5882 11.535 11.6213 10.9476L11.7017 10.9018C12.3539 10.531 13.1735 10.6416 13.7041 11.1721L14.4781 11.9462C15.129 12.5971 15.129 13.6523 14.4781 14.3032L14.0318 14.7495C13.7095 15.0719 13.3542 15.1734 13.0636 15.1036C11.8394 14.8094 9.31993 13.8591 6.22854 10.7677C3.13715 7.67629 2.18685 5.15681 1.89263 3.93261C1.82281 3.64207 1.92436 3.28676 2.24673 2.96438L2.69301 2.5181Z" fill="#00A351"/>
</svg>
