<svg width="20" height="20" viewBox="0 0 20 20" fill="none" xmlns="http://www.w3.org/2000/svg">
<path fill-rule="evenodd" clip-rule="evenodd" d="M1.66675 5.53224C1.66675 3.85758 3.02433 2.5 4.69898 2.5H11.355C11.6837 2.5 11.9512 2.63086 12.1399 2.76278C12.3283 2.89444 12.486 3.05995 12.6141 3.21545C12.8681 3.52373 13.1038 3.91534 13.3044 4.25975C13.3544 4.34563 13.4024 4.42895 13.4489 4.50962C13.6029 4.77666 13.7402 5.0147 13.8765 5.22077C13.9441 5.32289 14.0023 5.40273 14.0516 5.46296H15.0007C16.8419 5.46296 18.3334 6.95561 18.3334 8.7963V12.6736L17.911 12.2981C17.5486 11.976 17.1159 11.7771 16.6667 11.7015V10.8333H15.0001C14.5398 10.8333 14.1667 11.2064 14.1667 11.6667C14.1667 11.9514 14.3095 12.2027 14.5274 12.3531L13.3392 13.4093C13.3159 13.4299 13.2932 13.4509 13.2709 13.4722C12.7959 13.0171 12.5001 12.3764 12.5001 11.6667C12.5001 10.286 13.6194 9.16667 15.0001 9.16667H16.6667V8.7963C16.6667 7.87556 15.9209 7.12963 15.0007 7.12963H13.767C13.7553 7.12988 13.7436 7.12988 13.7319 7.12963H3.33341V14.1667C3.33341 15.0871 4.07961 15.8333 5.00008 15.8333H12.5621C12.6524 16.2311 12.8414 16.6123 13.1316 16.9387C13.2422 17.0632 13.3626 17.174 13.4904 17.2711C13.341 17.413 13.139 17.5 12.9167 17.5H5.00008C3.15913 17.5 1.66675 16.0076 1.66675 14.1667V5.53224ZM3.33514 5.46296H12.0747L11.9879 5.31262C11.9455 5.23899 11.9041 5.16714 11.8641 5.09841C11.6596 4.74733 11.485 4.46607 11.3279 4.27535C11.2865 4.22512 11.2535 4.19016 11.2291 4.16667H4.69898C3.96803 4.16667 3.37122 4.74097 3.33514 5.46296Z" fill="#00A351"/>
<path d="M16.8037 13.5438C16.488 13.2632 16.0122 13.2632 15.6964 13.5438L14.4464 14.6549C14.1025 14.9607 14.0715 15.4874 14.3772 15.8314C14.6447 16.1323 15.0813 16.1937 15.4167 15.9997V18.3333C15.4167 18.7936 15.7898 19.1667 16.2501 19.1667C16.7103 19.1667 17.0834 18.7936 17.0834 18.3333V15.9997C17.4188 16.1937 17.8554 16.1323 18.1229 15.8314C18.4287 15.4874 18.3977 14.9607 18.0537 14.6549L16.8037 13.5438Z" fill="#00A351"/>
</svg>
