<svg width="19" height="15" viewBox="0 0 19 15" fill="none" xmlns="http://www.w3.org/2000/svg">
<path fill-rule="evenodd" clip-rule="evenodd" d="M9.47764 0.166992C7.63669 0.166992 6.14431 1.65938 6.14431 3.50033C6.14431 5.34128 7.63669 6.83366 9.47764 6.83366C11.3186 6.83366 12.811 5.34128 12.811 3.50033C12.811 1.65938 11.3186 0.166992 9.47764 0.166992ZM7.81098 3.50033C7.81098 2.57985 8.55717 1.83366 9.47764 1.83366C10.3981 1.83366 11.1443 2.57985 11.1443 3.50033C11.1443 4.4208 10.3981 5.16699 9.47764 5.16699C8.55717 5.16699 7.81098 4.4208 7.81098 3.50033Z" fill="#00A351"/>
<path fill-rule="evenodd" clip-rule="evenodd" d="M9.47764 14.3337C8.53024 14.3337 7.1642 14.1097 6.12751 13.6333C5.61898 13.3996 5.07333 13.053 4.75147 12.5344C4.58156 12.2607 4.47421 11.9379 4.47773 11.5787C4.4812 11.223 4.59277 10.8856 4.77547 10.5764C5.61086 9.1626 7.34393 7.66699 9.47764 7.66699C11.6113 7.66699 13.3444 9.1626 14.1798 10.5764C14.3625 10.8856 14.4741 11.223 14.4776 11.5787C14.4811 11.9379 14.3737 12.2607 14.2038 12.5344C13.882 13.053 13.3363 13.3996 12.8278 13.6333C11.7911 14.1097 10.425 14.3337 9.47764 14.3337ZM6.21036 11.4243C6.14653 11.5323 6.1444 11.5859 6.14431 11.595C6.14424 11.601 6.14404 11.6176 6.16757 11.6555C6.23374 11.7621 6.42589 11.9362 6.82346 12.1189C7.59898 12.4753 8.71834 12.667 9.47764 12.667C10.2369 12.667 11.3563 12.4753 12.1318 12.1189C12.5294 11.9362 12.7215 11.7621 12.7877 11.6555C12.8112 11.6176 12.811 11.6015 12.811 11.5954C12.8109 11.5863 12.8088 11.5323 12.7449 11.4243C12.0973 10.3282 10.8306 9.33366 9.47764 9.33366C8.12471 9.33366 6.85803 10.3282 6.21036 11.4243Z" fill="#00A351"/>
<path fill-rule="evenodd" clip-rule="evenodd" d="M1.56098 6.00033C1.56098 4.61961 2.68026 3.50033 4.06098 3.50033C5.44169 3.50033 6.56098 4.61961 6.56098 6.00033C6.56098 7.38104 5.44169 8.50033 4.06098 8.50033C2.68026 8.50033 1.56098 7.38104 1.56098 6.00033ZM4.06098 5.16699C3.60074 5.16699 3.22764 5.54009 3.22764 6.00033C3.22764 6.46056 3.60074 6.83366 4.06098 6.83366C4.52121 6.83366 4.89431 6.46056 4.89431 6.00033C4.89431 5.54009 4.52121 5.16699 4.06098 5.16699Z" fill="#00A351"/>
<path d="M1.89075 12.2042C1.68613 12.6164 1.18606 12.7847 0.773815 12.5801C0.361565 12.3755 0.193247 11.8754 0.397865 11.4632C0.704018 10.8464 1.16741 10.227 1.75035 9.75318C2.33351 9.27914 3.08078 8.91699 3.93362 8.91699C4.39386 8.91699 4.76695 9.29009 4.76695 9.75033C4.76695 10.2106 4.39386 10.5837 3.93362 10.5837C3.56613 10.5837 3.17829 10.7403 2.80164 11.0465C2.42477 11.3528 2.10367 11.7752 1.89075 12.2042Z" fill="#00A351"/>
<path fill-rule="evenodd" clip-rule="evenodd" d="M12.6527 6.00033C12.6527 4.61961 13.772 3.50033 15.1527 3.50033C16.5334 3.50033 17.6527 4.61961 17.6527 6.00033C17.6527 7.38104 16.5334 8.50033 15.1527 8.50033C13.772 8.50033 12.6527 7.38104 12.6527 6.00033ZM15.1527 5.16699C14.6925 5.16699 14.3194 5.54009 14.3194 6.00033C14.3194 6.46056 14.6925 6.83366 15.1527 6.83366C15.6129 6.83366 15.986 6.46056 15.986 6.00033C15.986 5.54009 15.6129 5.16699 15.1527 5.16699Z" fill="#00A351"/>
<path d="M18.5611 11.4632C18.7657 11.8754 18.5974 12.3755 18.1851 12.5801C17.7729 12.7847 17.2728 12.6164 17.0682 12.2042C16.8553 11.7752 16.5342 11.3528 16.1573 11.0465C15.7807 10.7403 15.3928 10.5837 15.0253 10.5837C14.5651 10.5837 14.192 10.2106 14.192 9.75033C14.192 9.29009 14.5651 8.91699 15.0253 8.91699C15.8782 8.91699 16.6254 9.27914 17.2086 9.75318C17.7915 10.227 18.2549 10.8463 18.5611 11.4632Z" fill="#00A351"/>
</svg>
