<svg width="70" height="12" viewBox="0 0 70 12" fill="none" xmlns="http://www.w3.org/2000/svg">
<path d="M2.44247 9H0.754972L3.82741 0.272727H5.77912L8.85582 9H7.16832L4.83736 2.0625H4.76918L2.44247 9ZM2.49787 5.57812H7.10014V6.84801H2.49787V5.57812Z" fill="#00A351"/>
<path d="M9.93714 9V2.45455H11.4329V3.54545H11.5011C11.6204 3.16761 11.8249 2.87642 12.1147 2.67188C12.4073 2.46449 12.7411 2.3608 13.1161 2.3608C13.2013 2.3608 13.2965 2.36506 13.4016 2.37358C13.5096 2.37926 13.5991 2.3892 13.6701 2.40341V3.82244C13.6048 3.79972 13.5011 3.77983 13.359 3.76278C13.2198 3.7429 13.0849 3.73295 12.9542 3.73295C12.6729 3.73295 12.4201 3.79403 12.1957 3.91619C11.9741 4.03551 11.7994 4.2017 11.6715 4.41477C11.5437 4.62784 11.4798 4.87358 11.4798 5.15199V9H9.93714ZM17.2805 9.12784C16.6271 9.12784 16.0661 8.98438 15.5973 8.69744C15.1314 8.41051 14.772 8.0142 14.5192 7.50852C14.2692 7 14.1442 6.41477 14.1442 5.75284C14.1442 5.08807 14.272 4.50142 14.5277 3.9929C14.7834 3.48153 15.1442 3.08381 15.6101 2.79972C16.0788 2.51278 16.6328 2.36932 17.272 2.36932C17.8033 2.36932 18.2734 2.46733 18.6825 2.66335C19.0945 2.85653 19.4226 3.13068 19.6669 3.4858C19.9112 3.83807 20.0504 4.25 20.0845 4.72159H18.6101C18.5504 4.40625 18.4084 4.14347 18.1839 3.93324C17.9624 3.72017 17.6655 3.61364 17.2933 3.61364C16.978 3.61364 16.701 3.69886 16.4624 3.86932C16.2237 4.03693 16.0376 4.27841 15.9041 4.59375C15.7734 4.90909 15.7081 5.28693 15.7081 5.72727C15.7081 6.1733 15.7734 6.55682 15.9041 6.87784C16.0348 7.19602 16.218 7.44176 16.4538 7.61506C16.6925 7.78551 16.9723 7.87074 17.2933 7.87074C17.5206 7.87074 17.7237 7.82812 17.9027 7.7429C18.0845 7.65483 18.2365 7.52841 18.3587 7.36364C18.4808 7.19886 18.5646 6.99858 18.6101 6.76278H20.0845C20.0476 7.22585 19.9112 7.63636 19.6754 7.99432C19.4396 8.34943 19.1186 8.62784 18.7124 8.82955C18.3061 9.02841 17.8288 9.12784 17.2805 9.12784ZM22.8938 5.16477V9H21.3512V0.272727H22.8597V3.56676H22.9364C23.0898 3.19744 23.3271 2.90625 23.6481 2.69318C23.9719 2.47727 24.3839 2.36932 24.8839 2.36932C25.3384 2.36932 25.7347 2.46449 26.0728 2.65483C26.4109 2.84517 26.6722 3.12358 26.8569 3.49006C27.0444 3.85653 27.1381 4.30398 27.1381 4.83239V9H25.5955V5.07102C25.5955 4.63068 25.4819 4.28835 25.2546 4.04403C25.0302 3.79687 24.7148 3.6733 24.3086 3.6733C24.0359 3.6733 23.7915 3.73295 23.5756 3.85227C23.3626 3.96875 23.195 4.13778 23.0728 4.35938C22.9535 4.58097 22.8938 4.84943 22.8938 5.16477ZM31.6083 9.12784C30.9521 9.12784 30.3853 8.99148 29.908 8.71875C29.4336 8.44318 29.0685 8.05398 28.8129 7.55114C28.5572 7.04545 28.4293 6.45028 28.4293 5.76562C28.4293 5.09233 28.5572 4.50142 28.8129 3.9929C29.0714 3.48153 29.4322 3.08381 29.8952 2.79972C30.3583 2.51278 30.9023 2.36932 31.5273 2.36932C31.9308 2.36932 32.3114 2.43466 32.6694 2.56534C33.0302 2.69318 33.3484 2.89205 33.6239 3.16193C33.9023 3.43182 34.1211 3.77557 34.2802 4.19318C34.4393 4.60795 34.5188 5.10227 34.5188 5.67614V6.14915H29.1538V5.10938H33.0401C33.0373 4.81392 32.9734 4.55114 32.8484 4.32102C32.7234 4.08807 32.5487 3.90483 32.3242 3.77131C32.1026 3.63778 31.8441 3.57102 31.5487 3.57102C31.2333 3.57102 30.9563 3.64773 30.7177 3.80114C30.479 3.9517 30.293 4.15057 30.1594 4.39773C30.0288 4.64205 29.962 4.91051 29.9592 5.20312V6.1108C29.9592 6.49148 30.0288 6.81818 30.168 7.09091C30.3072 7.3608 30.5018 7.56818 30.7518 7.71307C31.0018 7.85511 31.2944 7.92614 31.6296 7.92614C31.854 7.92614 32.0572 7.89489 32.239 7.83239C32.4208 7.76705 32.5785 7.67188 32.712 7.54688C32.8455 7.42188 32.9464 7.26705 33.0146 7.08239L34.4549 7.24432C34.364 7.625 34.1907 7.95739 33.935 8.24148C33.6822 8.52273 33.3583 8.74148 32.9634 8.89773C32.5685 9.05114 32.1168 9.12784 31.6083 9.12784Z" fill="#121212"/>
<path d="M38.6705 11.5909C38.1165 11.5909 37.6406 11.5156 37.2429 11.3651C36.8452 11.2173 36.5256 11.0185 36.2841 10.7685C36.0426 10.5185 35.875 10.2415 35.7812 9.9375L37.1705 9.60085C37.233 9.72869 37.3239 9.85511 37.4432 9.98011C37.5625 10.108 37.723 10.2131 37.9247 10.2955C38.1293 10.3807 38.3864 10.4233 38.696 10.4233C39.1335 10.4233 39.4957 10.3168 39.7827 10.1037C40.0696 9.89347 40.2131 9.54688 40.2131 9.06392V7.82386H40.1364C40.0568 7.98295 39.9403 8.14631 39.7869 8.31392C39.6364 8.48153 39.4361 8.62216 39.1861 8.7358C38.9389 8.84943 38.6278 8.90625 38.2528 8.90625C37.75 8.90625 37.294 8.78835 36.8849 8.55256C36.4787 8.31392 36.1548 7.95881 35.9134 7.48722C35.6747 7.01278 35.5554 6.41903 35.5554 5.70597C35.5554 4.98722 35.6747 4.38068 35.9134 3.88636C36.1548 3.3892 36.4801 3.01278 36.8892 2.7571C37.2983 2.49858 37.7543 2.36932 38.2571 2.36932C38.6406 2.36932 38.956 2.43466 39.2031 2.56534C39.4531 2.69318 39.652 2.84801 39.7997 3.02983C39.9474 3.20881 40.0597 3.37784 40.1364 3.53693H40.2216V2.45455H41.7429V9.10653C41.7429 9.66619 41.6094 10.1293 41.3423 10.4957C41.0753 10.8622 40.7102 11.1364 40.2472 11.3182C39.7841 11.5 39.2585 11.5909 38.6705 11.5909ZM38.6832 7.69602C39.0099 7.69602 39.2884 7.61648 39.5185 7.45739C39.7486 7.2983 39.9233 7.0696 40.0426 6.77131C40.1619 6.47301 40.2216 6.11506 40.2216 5.69744C40.2216 5.28551 40.1619 4.92472 40.0426 4.61506C39.9261 4.3054 39.7528 4.06534 39.5227 3.89489C39.2955 3.72159 39.0156 3.63494 38.6832 3.63494C38.3395 3.63494 38.0526 3.72443 37.8224 3.90341C37.5923 4.08239 37.419 4.32812 37.3026 4.64062C37.1861 4.95028 37.1278 5.30256 37.1278 5.69744C37.1278 6.09801 37.1861 6.44886 37.3026 6.75C37.4219 7.0483 37.5966 7.28125 37.8267 7.44886C38.0597 7.61364 38.3452 7.69602 38.6832 7.69602ZM44.8665 0.272727V9H43.3239V0.272727H44.8665ZM49.3079 9.12784C48.6687 9.12784 48.1147 8.98722 47.646 8.70597C47.1772 8.42472 46.8136 8.03125 46.555 7.52557C46.2994 7.01989 46.1715 6.42898 46.1715 5.75284C46.1715 5.0767 46.2994 4.48437 46.555 3.97585C46.8136 3.46733 47.1772 3.07244 47.646 2.79119C48.1147 2.50994 48.6687 2.36932 49.3079 2.36932C49.9471 2.36932 50.5011 2.50994 50.9698 2.79119C51.4386 3.07244 51.8008 3.46733 52.0565 3.97585C52.315 4.48437 52.4442 5.0767 52.4442 5.75284C52.4442 6.42898 52.315 7.01989 52.0565 7.52557C51.8008 8.03125 51.4386 8.42472 50.9698 8.70597C50.5011 8.98722 49.9471 9.12784 49.3079 9.12784ZM49.3164 7.89205C49.663 7.89205 49.9528 7.79687 50.1857 7.60653C50.4187 7.41335 50.592 7.15483 50.7056 6.83097C50.8221 6.5071 50.8803 6.14631 50.8803 5.74858C50.8803 5.34801 50.8221 4.9858 50.7056 4.66193C50.592 4.33523 50.4187 4.07528 50.1857 3.8821C49.9528 3.68892 49.663 3.59233 49.3164 3.59233C48.9613 3.59233 48.6658 3.68892 48.43 3.8821C48.1971 4.07528 48.0224 4.33523 47.9059 4.66193C47.7923 4.9858 47.7354 5.34801 47.7354 5.74858C47.7354 6.14631 47.7923 6.5071 47.9059 6.83097C48.0224 7.15483 48.1971 7.41335 48.43 7.60653C48.6658 7.79687 48.9613 7.89205 49.3164 7.89205ZM53.8217 9V0.272727H55.3643V3.53693H55.4283C55.5078 3.37784 55.62 3.20881 55.7649 3.02983C55.9098 2.84801 56.1058 2.69318 56.353 2.56534C56.6001 2.43466 56.9155 2.36932 57.299 2.36932C57.8047 2.36932 58.2607 2.49858 58.6669 2.7571C59.076 3.01278 59.3999 3.39205 59.6385 3.89489C59.88 4.39489 60.0007 5.00852 60.0007 5.7358C60.0007 6.45455 59.8828 7.06534 59.647 7.56818C59.4112 8.07102 59.0902 8.45455 58.6839 8.71875C58.2777 8.98295 57.8175 9.11506 57.3033 9.11506C56.9283 9.11506 56.6172 9.05256 56.37 8.92756C56.1229 8.80256 55.924 8.65199 55.7734 8.47585C55.6257 8.29687 55.5107 8.12784 55.4283 7.96875H55.3388V9H53.8217ZM55.3345 5.72727C55.3345 6.15057 55.3942 6.52131 55.5135 6.83949C55.6357 7.15767 55.8104 7.40625 56.0376 7.58523C56.2678 7.76136 56.5462 7.84943 56.8729 7.84943C57.2138 7.84943 57.4993 7.75852 57.7294 7.5767C57.9595 7.39205 58.1328 7.14062 58.2493 6.82244C58.3686 6.50142 58.4283 6.13636 58.4283 5.72727C58.4283 5.32102 58.37 4.96023 58.2536 4.64489C58.1371 4.32955 57.9638 4.08239 57.7337 3.90341C57.5036 3.72443 57.2166 3.63494 56.8729 3.63494C56.5433 3.63494 56.2635 3.72159 56.0334 3.89489C55.8033 4.06818 55.6286 4.31108 55.5092 4.62358C55.3928 4.93608 55.3345 5.30398 55.3345 5.72727ZM63.1957 9.1321C62.7809 9.1321 62.4073 9.05824 62.0749 8.91051C61.7454 8.75994 61.484 8.53835 61.2908 8.24574C61.1005 7.95312 61.0053 7.59233 61.0053 7.16335C61.0053 6.79403 61.0735 6.48864 61.2099 6.24716C61.3462 6.00568 61.5323 5.8125 61.7681 5.66761C62.0039 5.52273 62.2695 5.41335 62.565 5.33949C62.8633 5.26278 63.1715 5.20739 63.4897 5.1733C63.8732 5.13352 64.1843 5.09801 64.4229 5.06676C64.6616 5.03267 64.8349 4.98153 64.9428 4.91335C65.0536 4.84233 65.109 4.73295 65.109 4.58523V4.55966C65.109 4.23864 65.0138 3.99006 64.8235 3.81392C64.6332 3.63778 64.359 3.54972 64.0011 3.54972C63.6232 3.54972 63.3235 3.6321 63.1019 3.79688C62.8832 3.96165 62.7354 4.15625 62.6587 4.38068L61.2184 4.17614C61.332 3.77841 61.5195 3.44602 61.7809 3.17898C62.0423 2.90909 62.3619 2.70739 62.7397 2.57386C63.1175 2.4375 63.5352 2.36932 63.9925 2.36932C64.3079 2.36932 64.6218 2.40625 64.9343 2.48011C65.2468 2.55398 65.5323 2.67614 65.7908 2.84659C66.0494 3.0142 66.2567 3.2429 66.413 3.53267C66.5721 3.82244 66.6516 4.18466 66.6516 4.61932V9H65.1687V8.10085H65.1175C65.0238 8.28267 64.8917 8.45312 64.7212 8.61222C64.5536 8.76847 64.342 8.89489 64.0863 8.99148C63.8335 9.08523 63.5366 9.1321 63.1957 9.1321ZM63.5962 7.99858C63.9059 7.99858 64.1744 7.9375 64.4016 7.81534C64.6289 7.69034 64.8036 7.52557 64.9258 7.32102C65.0508 7.11648 65.1133 6.89347 65.1133 6.65199V5.88068C65.065 5.92045 64.9826 5.95739 64.8661 5.99148C64.7525 6.02557 64.6246 6.0554 64.4826 6.08097C64.3406 6.10653 64.1999 6.12926 64.0607 6.14915C63.9215 6.16903 63.8008 6.18608 63.6985 6.20028C63.4684 6.23153 63.2624 6.28267 63.0806 6.35369C62.8988 6.42472 62.7553 6.52415 62.6502 6.65199C62.5451 6.77699 62.4925 6.93892 62.4925 7.13778C62.4925 7.42188 62.5962 7.63636 62.8036 7.78125C63.011 7.92614 63.2752 7.99858 63.5962 7.99858ZM69.7454 0.272727V9H68.2028V0.272727H69.7454Z" fill="black"/>
</svg>
