<svg width="13" height="12" viewBox="0 0 13 12" fill="none" xmlns="http://www.w3.org/2000/svg">
<path d="M6.5 5C5.67157 5 5 5.67157 5 6.5C5 7.32843 5.67157 8 6.5 8C7.32843 8 8 7.32843 8 6.5C8 5.67157 7.32843 5 6.5 5Z" fill="white"/>
<path fill-rule="evenodd" clip-rule="evenodd" d="M5.62132 1.75H7.37868C7.7765 1.75 8.15803 1.90804 8.43934 2.18934L8.78229 2.53229C8.92593 2.67593 9.09725 2.7889 9.28587 2.86435L10.5571 3.37283C11.1266 3.60063 11.5 4.15219 11.5 4.76555V8.75C11.5 9.57843 10.8284 10.25 10 10.25H3C2.17157 10.25 1.5 9.57843 1.5 8.75V4.76555C1.5 4.15219 1.87343 3.60063 2.44291 3.37283L3.71413 2.86435C3.90275 2.7889 4.07407 2.67593 4.21771 2.53229L4.56066 2.18934C4.84196 1.90804 5.2235 1.75 5.62132 1.75ZM4 6.5C4 5.11929 5.11929 4 6.5 4C7.88071 4 9 5.11929 9 6.5C9 7.88071 7.88071 9 6.5 9C5.11929 9 4 7.88071 4 6.5ZM8.42383 4.59616C8.62428 4.66298 8.78157 4.82027 8.84839 5.02073C8.91639 5.22473 9.20495 5.22473 9.27295 5.02073C9.33977 4.82027 9.49706 4.66298 9.69751 4.59616C9.90152 4.52816 9.90152 4.2396 9.69751 4.1716C9.49706 4.10479 9.33977 3.94749 9.27295 3.74704C9.20495 3.54304 8.91639 3.54304 8.84839 3.74704C8.78157 3.94749 8.62428 4.10479 8.42383 4.1716C8.21982 4.2396 8.21982 4.52816 8.42383 4.59616Z" fill="white"/>
</svg>
