<svg width="80" height="80" viewBox="0 0 80 80" fill="none" xmlns="http://www.w3.org/2000/svg">
<circle cx="40" cy="40" r="40" fill="#00A351"/>
<path fill-rule="evenodd" clip-rule="evenodd" d="M57.2491 29.3403C57.6506 28.9611 57.6687 28.3282 57.2895 27.9266C56.9102 27.5251 56.2773 27.5071 55.8758 27.8863L32.4504 50.0112L24.1241 42.1472C23.7226 41.768 23.0897 41.786 22.7105 42.1875C22.3313 42.5891 22.3494 43.222 22.7509 43.6012L31.7637 52.1137C32.1491 52.4777 32.7516 52.4777 33.137 52.1137L57.2491 29.3403Z" fill="white"/>
<path d="M57.2491 29.3403L55.8758 27.8863L55.8758 27.8863L57.2491 29.3403ZM55.8758 27.8863L54.5026 26.4323L54.5026 26.4323L55.8758 27.8863ZM32.4504 50.0112L31.0771 51.4652C31.8479 52.1932 33.0528 52.1932 33.8236 51.4652L32.4504 50.0112ZM24.1241 42.1472L22.7509 43.6012H22.7509L24.1241 42.1472ZM22.7105 42.1875L21.2565 40.8143L21.2565 40.8143L22.7105 42.1875ZM22.7509 43.6012L24.1241 42.1472H24.1241L22.7509 43.6012ZM31.7637 52.1137L30.3904 53.5677L30.3905 53.5677L31.7637 52.1137ZM33.137 52.1137L31.7637 50.6597H31.7637L33.137 52.1137ZM55.8355 29.2999C55.4562 28.8984 55.4743 28.2655 55.8758 27.8863L58.6224 30.7943C59.8269 29.6566 59.8811 27.7579 58.7435 26.5534L55.8355 29.2999ZM57.2491 29.3403C56.8476 29.7195 56.2147 29.7014 55.8355 29.2999L58.7435 26.5534C57.6058 25.3488 55.7071 25.2946 54.5026 26.4323L57.2491 29.3403ZM33.8236 51.4652L57.2491 29.3403L54.5026 26.4323L31.0771 48.5572L33.8236 51.4652ZM22.7509 43.6012L31.0771 51.4652L33.8236 48.5572L25.4974 40.6932L22.7509 43.6012ZM24.1645 43.5608C23.7853 43.9623 23.1524 43.9804 22.7509 43.6012L25.4974 40.6932C24.2929 39.5555 22.3942 39.6097 21.2565 40.8143L24.1645 43.5608ZM24.1241 42.1472C24.5257 42.5264 24.5437 43.1593 24.1645 43.5608L21.2565 40.8143C20.1188 42.0188 20.1731 43.9175 21.3776 45.0552L24.1241 42.1472ZM33.137 50.6597L24.1241 42.1472L21.3776 45.0552L30.3904 53.5677L33.137 50.6597ZM31.7637 50.6597C32.1491 50.2957 32.7516 50.2957 33.137 50.6597L30.3905 53.5677C31.5466 54.6597 33.3541 54.6597 34.5103 53.5677L31.7637 50.6597ZM55.8758 27.8863L31.7637 50.6597L34.5103 53.5677L58.6224 30.7943L55.8758 27.8863Z" fill="white"/>
</svg>
