<svg width="18" height="19" viewBox="0 0 18 19" fill="none" xmlns="http://www.w3.org/2000/svg">
<path d="M12.3333 4.50033V3.83366C12.3333 2.90024 12.3333 2.43353 12.1517 2.07701C11.9919 1.7634 11.7369 1.50844 11.4233 1.34865C11.0668 1.16699 10.6001 1.16699 9.66667 1.16699H8.33333C7.39991 1.16699 6.9332 1.16699 6.57668 1.34865C6.26308 1.50844 6.00811 1.7634 5.84832 2.07701C5.66667 2.43353 5.66667 2.90024 5.66667 3.83366V4.50033M7.33333 9.08366V13.2503M10.6667 9.08366V13.2503M1.5 4.50033H16.5M14.8333 4.50033V13.8337C14.8333 15.2338 14.8333 15.9339 14.5608 16.4686C14.3212 16.939 13.9387 17.3215 13.4683 17.5612C12.9335 17.8337 12.2335 17.8337 10.8333 17.8337H7.16667C5.76654 17.8337 5.06647 17.8337 4.53169 17.5612C4.06129 17.3215 3.67883 16.939 3.43915 16.4686C3.16667 15.9339 3.16667 15.2338 3.16667 13.8337V4.50033" stroke="#475467" stroke-width="1.66667" stroke-linecap="round" stroke-linejoin="round"/>
</svg>
