<svg width="17" height="18" viewBox="0 0 17 18" fill="none" xmlns="http://www.w3.org/2000/svg">
<path fill-rule="evenodd" clip-rule="evenodd" d="M8.3898 4.09171C9.61664 4.09171 10.6112 5.08626 10.6112 6.3131C10.6112 7.53993 9.61664 8.53448 8.3898 8.53448C7.16297 8.53448 6.16842 7.53993 6.16842 6.3131C6.16842 5.08626 7.16297 4.09171 8.3898 4.09171ZM8.94452 6.3131C8.94452 6.00673 8.69617 5.75838 8.3898 5.75838C8.08344 5.75838 7.83508 6.00673 7.83508 6.3131C7.83508 6.61946 8.08344 6.86782 8.3898 6.86782C8.69617 6.86782 8.94452 6.61946 8.94452 6.3131Z" fill="#00A351"/>
<path fill-rule="evenodd" clip-rule="evenodd" d="M0.616211 3.95492C0.616211 2.11397 2.1086 0.621582 3.94954 0.621582H12.8301C14.671 0.621582 16.1634 2.11397 16.1634 3.95492V8.67128C16.1634 9.12543 16.0726 9.55837 15.9081 9.95292L15.6746 11.6695C15.5822 12.3488 15.2939 12.9469 14.8774 13.4199C14.8663 13.4544 14.8529 13.4885 14.837 13.5221L14.0474 15.1959C13.1589 17.0791 10.7805 17.6958 9.08897 16.4816L1.9308 11.3436C1.87051 11.3003 1.81772 11.2504 1.7727 11.1957C1.06447 10.5845 0.616211 9.68022 0.616211 8.67128V3.95492ZM12.8301 12.0046C13.2145 12.0046 13.5838 11.9395 13.9274 11.8198C13.6248 12.6085 12.7546 13.0687 11.9037 12.8198L9.1173 12.0046H12.8301ZM2.86603 2.68847C2.50908 2.99415 2.28288 3.44812 2.28288 3.95492V8.67128C2.28288 9.17808 2.50908 9.63204 2.86603 9.93772C2.76073 9.79818 2.69829 9.62449 2.69829 9.43621C2.69829 8.97598 3.07138 8.60288 3.53162 8.60288H4.91967C5.37991 8.60288 5.75301 8.97598 5.75301 9.43621C5.75301 9.89645 5.37991 10.2695 4.91967 10.2695H3.53162C3.50996 10.2695 3.4885 10.2687 3.46725 10.2671C3.61993 10.3132 3.78184 10.3379 3.94954 10.3379H12.8301C12.9978 10.3379 13.1597 10.3132 13.3124 10.2671C13.2911 10.2687 13.2696 10.2695 13.248 10.2695H11.8599C11.3997 10.2695 11.0266 9.89645 11.0266 9.43621C11.0266 8.97598 11.3997 8.60288 11.8599 8.60288H13.248C13.7082 8.60288 14.0813 8.97598 14.0813 9.43621C14.0813 9.62449 14.0189 9.79819 13.9136 9.93772C14.2705 9.63204 14.4967 9.17808 14.4967 8.67128V3.95492C14.4967 3.44812 14.2705 2.99415 13.9136 2.68847C14.0189 2.82801 14.0813 3.0017 14.0813 3.18998C14.0813 3.65022 13.7082 4.02331 13.248 4.02331H11.8599C11.3997 4.02331 11.0266 3.65022 11.0266 3.18998C11.0266 2.72974 11.3997 2.35665 11.8599 2.35665H13.248C13.2696 2.35665 13.2911 2.35747 13.3124 2.3591C13.1597 2.31302 12.9978 2.28825 12.8301 2.28825H3.94954C3.78184 2.28825 3.61993 2.31302 3.46725 2.3591C3.4885 2.35747 3.50996 2.35665 3.53162 2.35665H4.91967C5.37991 2.35665 5.75301 2.72974 5.75301 3.18998C5.75301 3.65022 5.37991 4.02331 4.91967 4.02331H3.53162C3.07138 4.02331 2.69829 3.65022 2.69829 3.18998C2.69829 3.0017 2.76073 2.82801 2.86603 2.68847ZM12.5063 14.5523C12.1551 14.5663 11.7946 14.5244 11.4357 14.4194L7.44946 13.2532L10.0608 15.1276C10.8861 15.7199 12.0382 15.4408 12.5063 14.5523Z" fill="#00A351"/>
</svg>
