<svg width="19" height="19" viewBox="0 0 19 19" fill="none" xmlns="http://www.w3.org/2000/svg">
<path d="M1.39662 14.5963C1.43491 14.2517 1.45405 14.0794 1.50618 13.9184C1.55243 13.7755 1.61778 13.6396 1.70045 13.5142C1.79363 13.3729 1.91621 13.2503 2.16136 13.0052L13.1666 1.99992C14.0871 1.07945 15.5795 1.07945 16.4999 1.99993C17.4204 2.9204 17.4204 4.41279 16.4999 5.33326L5.49469 16.3385C5.24954 16.5836 5.12696 16.7062 4.98566 16.7994C4.86029 16.8821 4.72433 16.9474 4.58146 16.9937C4.42042 17.0458 4.24813 17.0649 3.90356 17.1032L1.08325 17.4166L1.39662 14.5963Z" stroke="#475467" stroke-width="1.66667" stroke-linecap="round" stroke-linejoin="round"/>
</svg>
