<svg width="18" height="19" viewBox="0 0 18 19" fill="none" xmlns="http://www.w3.org/2000/svg">
<path d="M12.9227 10.4229L9.58934 13.7562C9.2639 14.0817 8.73626 14.0817 8.41083 13.7562L5.07749 10.4229C4.75206 10.0975 4.75206 9.56984 5.07749 9.2444C5.40293 8.91897 5.93057 8.91897 6.256 9.2444L8.16675 11.1551V1.50033C8.16675 1.04009 8.53984 0.666992 9.00008 0.666992C9.46032 0.666992 9.83342 1.04009 9.83342 1.50033V11.1551L11.7442 9.2444C12.0696 8.91897 12.5972 8.91897 12.9227 9.2444C13.2481 9.56984 13.2481 10.0975 12.9227 10.4229Z" fill="white"/>
<path d="M2.33341 13.5837C2.33341 13.1234 1.96032 12.7503 1.50008 12.7503C1.03984 12.7503 0.666748 13.1234 0.666748 13.5837V14.8337C0.666748 16.6746 2.15913 18.167 4.00008 18.167H14.0001C15.841 18.167 17.3334 16.6746 17.3334 14.8337V13.5837C17.3334 13.1234 16.9603 12.7503 16.5001 12.7503C16.0398 12.7503 15.6667 13.1234 15.6667 13.5837V14.8337C15.6667 15.7541 14.9206 16.5003 14.0001 16.5003H4.00008C3.07961 16.5003 2.33341 15.7541 2.33341 14.8337V13.5837Z" fill="white"/>
</svg>
