<svg width="22" height="14" viewBox="0 0 22 14" fill="none" xmlns="http://www.w3.org/2000/svg">
<path d="M3.29464 9.98278C3.58029 10.4555 3.42868 11.0702 2.95601 11.3559C2.48333 11.6415 1.86859 11.4899 1.58294 11.0172C1.17684 10.3452 0.901314 9.76617 0.739301 9.39237C0.507313 8.85711 0.540973 8.25449 0.823594 7.7498C1.25486 6.97968 2.34432 5.19934 4.02335 3.59968C5.69852 2.00369 8.05564 0.5 10.9997 0.5C13.9438 0.5 16.301 2.00369 17.9761 3.59968C19.6552 5.19933 20.7446 6.97968 21.1759 7.7498C21.4585 8.25449 21.4922 8.85711 21.2602 9.39237C21.0982 9.76617 20.8226 10.3452 20.4165 11.0172C20.1309 11.4899 19.5161 11.6415 19.0435 11.3559C18.5708 11.0702 18.4192 10.4555 18.7048 9.98278C19.0315 9.44231 19.2581 8.97489 19.3956 8.66443C18.9898 7.94934 18.0289 6.41231 16.5966 5.0477C15.1171 3.63816 13.2297 2.5 10.9997 2.5C8.76978 2.5 6.8824 3.63816 5.40292 5.0477C3.9706 6.41232 3.00964 7.94933 2.60389 8.66442C2.74137 8.97489 2.96802 9.4423 3.29464 9.98278Z" fill="#121212"/>
<path fill-rule="evenodd" clip-rule="evenodd" d="M10.9997 4C8.23831 4 5.99974 6.23858 5.99974 9C5.99974 11.7614 8.23831 14 10.9997 14C13.7612 14 15.9997 11.7614 15.9997 9C15.9997 6.23858 13.7612 4 10.9997 4ZM7.99974 9C7.99974 7.34315 9.34288 6 10.9997 6C12.6566 6 13.9997 7.34315 13.9997 9C13.9997 10.6569 12.6566 12 10.9997 12C9.34288 12 7.99974 10.6569 7.99974 9Z" fill="#121212"/>
</svg>
