<svg width="20" height="20" viewBox="0 0 20 20" fill="none" xmlns="http://www.w3.org/2000/svg">
<path fill-rule="evenodd" clip-rule="evenodd" d="M9.99947 2.5C5.3971 2.5 1.66614 6.23096 1.66614 10.8333V13.3201C1.66597 13.3296 1.66598 13.3391 1.66614 13.3486V15.3431C1.66614 16.5343 2.6318 17.5 3.823 17.5C5.0142 17.5 5.97986 16.5343 5.97986 15.3431V13.5422C5.97986 11.9241 4.55082 11.1746 3.3328 11.4231V10.8333C3.3328 7.15143 6.31757 4.16667 9.99947 4.16667C13.6814 4.16667 16.6661 7.15143 16.6661 10.8333V11.4143C15.4485 11.1655 14.0191 11.9126 14.0191 13.5324V15.3431C14.0191 15.7402 14.1264 16.1122 14.3135 16.4317C13.5759 16.7984 12.5694 17.0834 11.2495 17.0834C10.7892 17.0834 10.4161 17.4565 10.4161 17.9167C10.4161 18.3769 10.7892 18.75 11.2495 18.75C13.2861 18.75 14.7957 18.1755 15.8298 17.4724C15.9425 17.4906 16.0581 17.5 16.1759 17.5C17.3671 17.5 18.3328 16.5343 18.3328 15.3431V13.3482C18.333 13.339 18.333 13.3298 18.3328 13.3206V10.8333C18.3328 6.23096 14.6018 2.5 9.99947 2.5ZM16.0428 15.815C16.0851 15.827 16.1298 15.8333 16.1759 15.8333C16.4467 15.8333 16.6661 15.6139 16.6661 15.3431V13.4069C16.6319 13.2496 16.5611 13.1698 16.4963 13.1234C16.4121 13.063 16.2877 13.0255 16.1461 13.0361C16.0045 13.0468 15.8871 13.1025 15.8129 13.1748C15.75 13.2361 15.6857 13.3386 15.6857 13.5324V15.3431C15.6857 15.5258 15.7857 15.6852 15.9339 15.7695C15.9711 15.782 16.0075 15.7972 16.0428 15.815ZM3.3328 15.3431V13.4106C3.36829 13.2559 3.43902 13.1771 3.50382 13.1311C3.58845 13.0711 3.71282 13.0342 3.85397 13.0453C3.99512 13.0565 4.11217 13.1124 4.18633 13.185C4.24933 13.2466 4.3132 13.3493 4.3132 13.5422V15.3431C4.3132 15.6139 4.09373 15.8333 3.823 15.8333C3.55227 15.8333 3.3328 15.6139 3.3328 15.3431Z" fill="#00A351"/>
</svg>
