<svg width="18" height="18" viewBox="0 0 18 18" fill="none" xmlns="http://www.w3.org/2000/svg">
<path fill-rule="evenodd" clip-rule="evenodd" d="M3.4009 0.666992C1.89087 0.666992 0.666748 1.89111 0.666748 3.40114C0.666748 3.96212 0.8393 4.50951 1.161 4.96908L6.1988 12.1659C6.3949 12.4461 6.50008 12.7798 6.50008 13.1217V14.9644C6.50008 16.6724 8.29755 17.7833 9.82525 17.0194C10.8517 16.5062 11.5001 15.4571 11.5001 14.3095V13.1217C11.5001 12.7798 11.6053 12.4461 11.8014 12.1659L16.8392 4.96908C17.1609 4.50951 17.3334 3.96212 17.3334 3.40114C17.3334 1.89111 16.1093 0.666992 14.5993 0.666992H3.4009ZM9.83342 14.3095C9.83342 14.8258 9.5417 15.2978 9.0799 15.5287C8.66037 15.7385 8.16675 15.4334 8.16675 14.9644V13.1217C8.16675 12.4378 7.95638 11.7705 7.56419 11.2102L2.52638 4.01331C2.40078 3.83388 2.33341 3.62016 2.33341 3.40114C2.33341 2.81159 2.81134 2.33366 3.4009 2.33366H14.5993C15.1888 2.33366 15.6667 2.81159 15.6667 3.40114C15.6667 3.62016 15.5994 3.83388 15.4738 4.01331L10.436 11.2102C10.0438 11.7705 9.83342 12.4378 9.83342 13.1217V14.3095Z" fill="#00A351"/>
</svg>
