<svg width="20" height="17" viewBox="0 0 20 17" fill="none" xmlns="http://www.w3.org/2000/svg">
<path fill-rule="evenodd" clip-rule="evenodd" d="M2.50065 3.83333C2.50065 2.91286 3.24684 2.16667 4.16732 2.16667H13.334C13.7942 2.16667 14.1673 1.79357 14.1673 1.33333C14.1673 0.873096 13.7942 0.5 13.334 0.5H4.16732C2.32637 0.5 0.833984 1.99238 0.833984 3.83333V13C0.833984 14.841 2.32637 16.3333 4.16732 16.3333H15.834C17.6749 16.3333 19.1673 14.841 19.1673 13V6.33333C19.1673 5.8731 18.7942 5.5 18.334 5.5C17.8737 5.5 17.5006 5.8731 17.5006 6.33333V10.2077L14.4538 6.39918C13.0445 4.63752 10.3289 4.75537 9.07745 6.63249L8.12776 8.05702C6.99239 7.43387 5.55999 7.78186 4.84025 8.87138L2.50065 12.413V3.83333ZM13.1524 7.44033L17.5006 12.8757V13C17.5006 13.9205 16.7545 14.6667 15.834 14.6667H7.28151C6.61593 14.6667 6.21894 13.9249 6.58814 13.3711L10.4642 7.55699C11.0899 6.61843 12.4477 6.55951 13.1524 7.44033ZM5.20139 12.4466C4.72833 13.1562 4.67457 13.9686 4.92381 14.6667H4.58398C4.12375 14.6667 3.75065 14.2936 3.75065 13.8333V13.7949C3.75065 13.6316 3.79864 13.4719 3.88867 13.3356L6.23088 9.79004C6.44319 9.46864 6.84155 9.34083 7.19269 9.45963L5.20139 12.4466Z" fill="#00A351"/>
<path d="M4.31982 5.3319C4.72072 5.46553 5.03531 5.78012 5.16894 6.18102C5.30495 6.58903 5.88206 6.58903 6.01807 6.18102C6.1517 5.78012 6.46629 5.46553 6.86719 5.3319C7.2752 5.19589 7.2752 4.61878 6.86719 4.48277C6.46629 4.34914 6.1517 4.03455 6.01807 3.63365C5.88206 3.22564 5.30495 3.22564 5.16894 3.63365C5.03531 4.03455 4.72072 4.34914 4.31982 4.48277C3.91181 4.61878 3.91181 5.19589 4.31982 5.3319Z" fill="#00A351"/>
<path d="M17.5006 1.33333C17.5006 0.873096 17.1276 0.5 16.6673 0.5C16.2071 0.5 15.834 0.873096 15.834 1.33333V2.16667H15.0006C14.5404 2.16667 14.1673 2.53976 14.1673 3C14.1673 3.46024 14.5404 3.83333 15.0006 3.83333H15.834V4.66667C15.834 5.1269 16.2071 5.5 16.6673 5.5C17.1276 5.5 17.5006 5.1269 17.5006 4.66667V3.83333H18.334C18.7942 3.83333 19.1673 3.46024 19.1673 3C19.1673 2.53976 18.7942 2.16667 18.334 2.16667H17.5006V1.33333Z" fill="#00A351"/>
</svg>
