<svg width="125" height="115" viewBox="0 0 125 115" fill="none" xmlns="http://www.w3.org/2000/svg">
<path d="M0 62.1622C0 27.8309 27.9822 0 62.5 0C97.0178 0 125 27.8309 125 62.1622V93.2432C125 96.6764 122.202 99.4595 118.75 99.4595C118.517 99.4595 118.288 99.4468 118.062 99.4222C116.61 103.084 113.021 105.676 108.824 105.676C107.978 105.676 107.157 105.57 106.373 105.372C98.5918 110.672 87.2037 115 71.875 115C68.4232 115 65.625 112.217 65.625 108.784C65.625 105.351 68.4232 102.568 71.875 102.568C84.4846 102.568 93.2456 99.1298 98.8972 95.3891V82.2958C98.8972 74.2393 106.647 70.8887 112.5 72.9655V62.1622C112.5 34.6972 90.1142 12.4324 62.5 12.4324C34.8858 12.4324 12.5 34.6972 12.5 62.1622V73.0307C18.356 70.9557 26.1029 74.3207 26.1029 82.369V95.8029C26.1029 101.255 21.6587 105.676 16.1765 105.676C11.9788 105.676 8.38974 103.084 6.93823 99.4222C6.71222 99.4468 6.48259 99.4595 6.25 99.4595C2.79822 99.4595 0 96.6764 0 93.2432V62.1622Z" fill="#00A351"/>
<path fill-rule="evenodd" clip-rule="evenodd" d="M90.625 56.9459C90.625 72.395 78.033 84.9189 62.5 84.9189C60.0917 84.9189 57.7541 84.6179 55.5232 84.0515L38.0088 81.8741C36.0263 81.6276 34.6486 79.7896 34.977 77.8296L36.0486 71.4352C36.1044 71.1018 36.1114 70.7621 36.0692 70.4267L35.2471 63.885C34.6777 61.6661 34.375 59.3412 34.375 56.9459C34.375 41.4969 46.967 28.973 62.5 28.973C78.033 28.973 90.625 41.4969 90.625 56.9459ZM74.2188 56.9459C74.2188 59.0916 75.9676 60.8311 78.125 60.8311C80.2824 60.8311 82.0312 59.0916 82.0312 56.9459C82.0312 54.8002 80.2824 53.0608 78.125 53.0608C75.9676 53.0608 74.2188 54.8002 74.2188 56.9459ZM62.5 60.8311C60.3426 60.8311 58.5938 59.0916 58.5938 56.9459C58.5938 54.8002 60.3426 53.0608 62.5 53.0608C64.6574 53.0608 66.4062 54.8002 66.4062 56.9459C66.4062 59.0916 64.6574 60.8311 62.5 60.8311ZM42.9688 56.9459C42.9688 59.0916 44.7176 60.8311 46.875 60.8311C49.0324 60.8311 50.7812 59.0916 50.7812 56.9459C50.7812 54.8002 49.0324 53.0608 46.875 53.0608C44.7176 53.0608 42.9688 54.8002 42.9688 56.9459Z" fill="#00A351"/>
</svg>
