<svg width="20" height="20" viewBox="0 0 20 20" fill="none" xmlns="http://www.w3.org/2000/svg">
<path d="M5.00033 7.08334C5.00033 6.62311 5.37342 6.25001 5.83366 6.25001H10.0003C10.4606 6.25001 10.8337 6.62311 10.8337 7.08334C10.8337 7.54358 10.4606 7.91668 10.0003 7.91668H5.83366C5.37342 7.91668 5.00033 7.54358 5.00033 7.08334Z" fill="#667185"/>
<path d="M5.83366 9.58334C5.37342 9.58334 5.00033 9.95644 5.00033 10.4167C5.00033 10.8769 5.37342 11.25 5.83366 11.25H13.3337C13.7939 11.25 14.167 10.8769 14.167 10.4167C14.167 9.95644 13.7939 9.58334 13.3337 9.58334H5.83366Z" fill="#667185"/>
<path fill-rule="evenodd" clip-rule="evenodd" d="M12.8337 16.625L14.0003 15.75C14.2888 15.5336 14.6397 15.4167 15.0003 15.4167C16.8413 15.4167 18.3337 13.9243 18.3337 12.0833V5.41668C18.3337 3.57573 16.8413 2.08334 15.0003 2.08334H5.00033C3.15938 2.08334 1.66699 3.57573 1.66699 5.41668V12.0833C1.66699 13.9243 3.15938 15.4167 5.00033 15.4167H6.66699C7.02761 15.4167 7.3785 15.5336 7.66699 15.75L8.83366 16.625C10.0188 17.5139 11.6485 17.5139 12.8337 16.625ZM15.0003 13.75C14.2791 13.75 13.5773 13.9839 13.0003 14.4167L11.8337 15.2917C11.2411 15.7361 10.4263 15.7361 9.83366 15.2917L8.66699 14.4167C8.09001 13.9839 7.38823 13.75 6.66699 13.75H5.00033C4.07985 13.75 3.33366 13.0038 3.33366 12.0833V5.41668C3.33366 4.4962 4.07985 3.75001 5.00033 3.75001H15.0003C15.9208 3.75001 16.667 4.4962 16.667 5.41668V12.0833C16.667 13.0038 15.9208 13.75 15.0003 13.75Z" fill="#667185"/>
</svg>
