<svg width="40" height="40" viewBox="0 0 40 40" fill="none" xmlns="http://www.w3.org/2000/svg">
<rect width="40" height="40" rx="20" fill="#F0F2F5"/>
<path fill-rule="evenodd" clip-rule="evenodd" d="M16.667 10.8333C17.1272 10.8333 17.5003 11.2063 17.5003 11.6666V12.4999H22.5003V11.6666C22.5003 11.2063 22.8734 10.8333 23.3337 10.8333C23.7939 10.8333 24.167 11.2063 24.167 11.6666V12.4999H25.0003C26.8413 12.4999 28.3337 13.9923 28.3337 15.8333V24.9999C28.3337 26.8409 26.8413 28.3333 25.0003 28.3333H15.0003C13.1594 28.3333 11.667 26.8409 11.667 24.9999V15.8333C11.667 13.9923 13.1594 12.4999 15.0003 12.4999H15.8337V11.6666C15.8337 11.2063 16.2068 10.8333 16.667 10.8333ZM22.5003 14.1666C22.5003 14.6268 22.8734 14.9999 23.3337 14.9999C23.7939 14.9999 24.167 14.6268 24.167 14.1666H25.0003C25.9208 14.1666 26.667 14.9128 26.667 15.8333V16.2499H13.3337V15.8333C13.3337 14.9128 14.0799 14.1666 15.0003 14.1666H15.8337C15.8337 14.6268 16.2068 14.9999 16.667 14.9999C17.1272 14.9999 17.5003 14.6268 17.5003 14.1666H22.5003ZM26.667 17.9166H13.3337V24.9999C13.3337 25.9204 14.0799 26.6666 15.0003 26.6666H25.0003C25.9208 26.6666 26.667 25.9204 26.667 24.9999V17.9166Z" fill="#121212"/>
</svg>
