<svg width="41" height="41" viewBox="0 0 41 41" fill="none" xmlns="http://www.w3.org/2000/svg">
<rect x="0.833496" y="1" width="39" height="39" rx="19.5" fill="white"/>
<rect x="0.833496" y="1" width="39" height="39" rx="19.5" stroke="#E4E7EC"/>
<path d="M20.3336 23.4167H16.5836C15.4206 23.4167 14.8391 23.4167 14.366 23.5602C13.3006 23.8834 12.4669 24.717 12.1438 25.7824C12.0002 26.2555 12.0002 26.837 12.0002 28M23.6669 25.5L25.3336 27.1667L28.6669 23.8333M22.4169 16.75C22.4169 18.8211 20.738 20.5 18.6669 20.5C16.5958 20.5 14.9169 18.8211 14.9169 16.75C14.9169 14.6789 16.5958 13 18.6669 13C20.738 13 22.4169 14.6789 22.4169 16.75Z" stroke="#344054" stroke-width="2" stroke-linecap="round" stroke-linejoin="round"/>
</svg>
