<svg width="18" height="16" viewBox="0 0 18 16" fill="none" xmlns="http://www.w3.org/2000/svg">
<path fill-rule="evenodd" clip-rule="evenodd" d="M10.6668 0.5C7.90536 0.5 5.66678 2.73858 5.66678 5.5C5.66678 8.26142 7.90536 10.5 10.6668 10.5C13.4282 10.5 15.6668 8.26142 15.6668 5.5C15.6668 2.73858 13.4282 0.5 10.6668 0.5ZM7.33345 5.5C7.33345 3.65905 8.82583 2.16667 10.6668 2.16667C12.5077 2.16667 14.0001 3.65905 14.0001 5.5C14.0001 7.34095 12.5077 8.83333 10.6668 8.83333C8.82583 8.83333 7.33345 7.34095 7.33345 5.5Z" fill="#98A2B3"/>
<path d="M5.79628 15.106C5.55364 15.4971 5.03991 15.6174 4.64883 15.3748C4.25775 15.1321 4.13741 14.6184 4.38005 14.2273C5.52122 12.388 7.85578 10.5 10.6668 10.5C13.4778 10.5 15.8124 12.388 16.9535 14.2273C17.1962 14.6184 17.0758 15.1321 16.6848 15.3748C16.2937 15.6174 15.7799 15.4971 15.5373 15.106C14.6022 13.5988 12.7371 12.1667 10.6668 12.1667C8.59651 12.1667 6.73141 13.5988 5.79628 15.106Z" fill="#98A2B3"/>
<path d="M5.58166 3.46643C5.7843 3.87966 5.61358 4.37891 5.20035 4.58155C4.44313 4.95287 4.00011 5.62649 4.00011 6.33333C4.00011 7.04017 4.44313 7.7138 5.20035 8.08512C5.61358 8.28775 5.7843 8.78701 5.58166 9.20024C5.37903 9.61346 4.87977 9.78418 4.46654 9.58155C3.23587 8.97806 2.33345 7.77794 2.33345 6.33333C2.33345 4.88872 3.23587 3.6886 4.46654 3.08512C4.87977 2.88248 5.37903 3.0532 5.58166 3.46643Z" fill="#98A2B3"/>
<path d="M2.46295 15.106C2.22031 15.4971 1.70658 15.6174 1.3155 15.3748C0.924416 15.1321 0.80408 14.6184 1.04672 14.2273C1.5293 13.4495 2.30141 12.8003 3.16281 12.2966C3.56011 12.0643 4.07052 12.198 4.30283 12.5953C4.53515 12.9926 4.40141 13.503 4.00411 13.7354C3.28435 14.1562 2.75479 14.6356 2.46295 15.106Z" fill="#98A2B3"/>
</svg>
