<svg width="48" height="48" viewBox="0 0 48 48" fill="none" xmlns="http://www.w3.org/2000/svg">
<g clip-path="url(#clip0_159_2287)">
<rect width="48" height="48" fill="#E0E0E0"/>
<path d="M28.4412 21.9027C28.8033 21.5418 28.7944 20.9654 28.4213 20.6152C28.0482 20.265 27.4522 20.2736 27.0901 20.6344L22.2835 25.4241L20.9099 24.0553C20.5478 23.6945 19.9518 23.6859 19.5787 24.0361C19.2056 24.3863 19.1967 24.9627 19.5588 25.3236L21.608 27.3656C21.7853 27.5422 22.029 27.6419 22.2835 27.6419C22.5381 27.6419 22.7818 27.5422 22.9591 27.3656L28.4412 21.9027Z" fill="#667185"/>
<path fill-rule="evenodd" clip-rule="evenodd" d="M26.3552 14.9215C25.042 13.6928 22.958 13.6928 21.6448 14.9215C21.3112 15.2336 20.8475 15.3793 20.388 15.3164C18.5789 15.069 16.8928 16.2537 16.5771 17.9942C16.497 18.4363 16.2103 18.8179 15.8004 19.0282C14.1864 19.8564 13.5424 21.7734 14.3448 23.361C14.5486 23.7642 14.5486 24.2358 14.3448 24.639C13.5424 26.2266 14.1864 28.1436 15.8004 28.9718C16.2103 29.1821 16.497 29.5637 16.5771 30.0058C16.8928 31.7463 18.5789 32.931 20.388 32.6836C20.8475 32.6207 21.3112 32.7664 21.6448 33.0785C22.958 34.3072 25.042 34.3072 26.3552 33.0785C26.6888 32.7664 27.1525 32.6207 27.612 32.6836C29.4211 32.931 31.1072 31.7463 31.4229 30.0058C31.503 29.5637 31.7897 29.1821 32.1996 28.9718C33.8136 28.1436 34.4576 26.2266 33.6552 24.639C33.4514 24.2358 33.4514 23.7642 33.6552 23.361C34.4576 21.7734 33.8136 19.8564 32.1996 19.0282C31.7897 18.8179 31.503 18.4363 31.4229 17.9942C31.1072 16.2537 29.4211 15.069 27.612 15.3164C27.1525 15.3793 26.6888 15.2336 26.3552 14.9215ZM22.9539 16.2303C23.5372 15.6845 24.4628 15.6845 25.0461 16.2303C25.797 16.9329 26.8412 17.261 27.8757 17.1195C28.6793 17.0095 29.4281 17.5358 29.5684 18.3088C29.7489 19.3041 30.3942 20.1632 31.3172 20.6368C32.034 21.0047 32.3201 21.8561 31.9637 22.5612C31.5048 23.4691 31.5048 24.5309 31.9637 25.4388C32.3201 26.1439 32.034 26.9953 31.3172 27.3632C30.3942 27.8368 29.7489 28.6959 29.5684 29.6912C29.4281 30.4642 28.6793 30.9905 27.8757 30.8805C26.8412 30.739 25.797 31.0671 25.0461 31.7697C24.4628 32.3155 23.5372 32.3155 22.9539 31.7697C22.203 31.0671 21.1588 30.739 20.1243 30.8805C19.3207 30.9905 18.5719 30.4642 18.4316 29.6912C18.2511 28.6959 17.6058 27.8368 16.6828 27.3632C15.966 26.9953 15.6799 26.1439 16.0363 25.4388C16.4952 24.5309 16.4952 23.4691 16.0363 22.5612C15.6799 21.8561 15.966 21.0047 16.6828 20.6368C17.6058 20.1632 18.2511 19.3041 18.4316 18.3088C18.5719 17.5358 19.3207 17.0095 20.1243 17.1195C21.1588 17.261 22.203 16.9329 22.9539 16.2303Z" fill="#667185"/>
</g>
<defs>
<clipPath id="clip0_159_2287">
<rect width="48" height="48" rx="24" fill="white"/>
</clipPath>
</defs>
</svg>
