<svg width="18" height="18" viewBox="0 0 18 18" fill="none" xmlns="http://www.w3.org/2000/svg">
<path d="M9.11709 7.45408C9.3523 7.27768 9.40873 6.94824 9.24564 6.70361C9.05173 6.41274 8.64018 6.37198 8.39298 6.61918L7.92291 7.08925C7.59748 7.41468 7.06984 7.41468 6.7444 7.08925C6.41897 6.76381 6.41897 6.23617 6.7444 5.91073L7.21447 5.44067C8.20536 4.44978 9.85507 4.61313 10.6324 5.77911C11.2861 6.75974 11.0599 8.08027 10.1171 8.78742L10.0766 8.81776C9.92368 8.93248 9.83366 9.11251 9.83366 9.30371L9.83366 9.41666C9.83366 9.87689 9.46056 10.25 9.00032 10.25C8.54009 10.25 8.16699 9.87689 8.16699 9.41666L8.16699 9.30371C8.16699 8.58792 8.504 7.9139 9.07663 7.48443L9.11709 7.45408Z" fill="#667185"/>
<path d="M8.16699 11.9167C8.16699 12.3769 8.54009 12.75 9.00033 12.75C9.46056 12.75 9.83366 12.3769 9.83366 11.9167C9.83366 11.4564 9.46056 11.0833 9.00033 11.0833C8.54009 11.0833 8.16699 11.4564 8.16699 11.9167Z" fill="#667185"/>
<path fill-rule="evenodd" clip-rule="evenodd" d="M0.666992 8.99999C0.666992 4.39762 4.39795 0.666656 9.00033 0.666656C13.6027 0.666656 17.3337 4.39762 17.3337 8.99999C17.3337 13.6024 13.6027 17.3333 9.00033 17.3333C4.39795 17.3333 0.666992 13.6024 0.666992 8.99999ZM9.00033 2.33332C5.31843 2.33332 2.33366 5.31809 2.33366 8.99999C2.33366 12.6819 5.31843 15.6667 9.00033 15.6667C12.6822 15.6667 15.667 12.6819 15.667 8.99999C15.667 5.31809 12.6822 2.33332 9.00033 2.33332Z" fill="#667185"/>
</svg>
