<svg width="48" height="48" viewBox="0 0 48 48" fill="none" xmlns="http://www.w3.org/2000/svg">
<rect width="48" height="48" rx="24" fill="#F0F2F5"/>
<path fill-rule="evenodd" clip-rule="evenodd" d="M21.8744 14.8073C20.3123 13.2452 17.7797 13.2452 16.2176 14.8073L15.6821 15.3429C14.9437 16.0812 14.4387 17.1877 14.7267 18.3863C15.1683 20.2238 16.4972 23.5722 20.4602 27.5352C24.4232 31.4982 27.7717 32.8271 29.6092 33.2687C30.8078 33.5568 31.9143 33.0518 32.6526 32.3134L33.1882 31.7779C34.7503 30.2158 34.7503 27.6831 33.1882 26.121L32.2593 25.1921C30.986 23.9189 29.0189 23.6533 27.4536 24.5434L27.3571 24.5983C26.7157 24.963 25.9788 24.9332 25.4568 24.5554C25.0355 24.2506 24.6329 23.9298 24.3493 23.6461C24.0657 23.3625 23.7449 22.9599 23.44 22.5387C23.0622 22.0167 23.0324 21.2798 23.3972 20.6384L23.4521 20.5418C24.3421 18.9765 24.0766 17.0095 22.8033 15.7362L21.8744 14.8073ZM17.6318 16.2215C18.4129 15.4405 19.6792 15.4405 20.4602 16.2215L21.3891 17.1504C22.0257 17.787 22.1585 18.7706 21.7135 19.5532L21.6586 19.6498C20.9537 20.8894 20.9289 22.4803 21.8198 23.7113C22.1471 24.1634 22.5403 24.6656 22.9351 25.0604C23.3299 25.4552 23.832 25.8484 24.2842 26.1756C25.5152 27.0665 27.1061 27.0418 28.3457 26.3369L28.4422 26.282C29.2249 25.837 30.2084 25.9697 30.8451 26.6064L31.7739 27.5352C32.555 28.3163 32.555 29.5826 31.7739 30.3637L31.2384 30.8992C30.8516 31.286 30.4252 31.4079 30.0765 31.3241C28.6075 30.9711 25.5841 29.8307 21.8744 26.121C18.1648 22.4114 17.0244 19.388 16.6714 17.9189C16.5876 17.5703 16.7094 17.1439 17.0963 16.7571L17.6318 16.2215Z" fill="#344054"/>
</svg>
