<svg width="48" height="48" viewBox="0 0 48 48" fill="none" xmlns="http://www.w3.org/2000/svg">
<rect width="48" height="48" rx="24" fill="#F0F2F5"/>
<path d="M24.0007 17C22.6875 17 21.3871 17.2587 20.1739 17.7612C18.9606 18.2638 17.8582 19.0003 16.9297 19.9289C16.0011 20.8575 15.2645 21.9599 14.7619 23.1732C14.5506 23.6834 14.7929 24.2684 15.3031 24.4797C15.8134 24.6911 16.3983 24.4488 16.6097 23.9385C17.0117 22.9679 17.601 22.086 18.3439 21.3431C19.0867 20.6003 19.9687 20.011 20.9393 19.609C21.9099 19.2069 22.9501 19 24.0007 19C25.0513 19 26.0916 19.2069 27.0622 19.609C28.0328 20.011 28.9147 20.6003 29.6576 21.3431C30.4004 22.086 30.9897 22.9679 31.3918 23.9385C31.6031 24.4488 32.1881 24.6911 32.6983 24.4797C33.2086 24.2684 33.4509 23.6834 33.2395 23.1732C32.737 21.9599 32.0004 20.8575 31.0718 19.9289C30.1432 19.0003 29.0408 18.2638 27.8276 17.7612C26.6143 17.2587 25.3139 17 24.0007 17Z" fill="#344054"/>
<path d="M24.0008 20C23.0815 20 22.1713 20.1811 21.322 20.5328C20.4727 20.8846 19.701 21.4002 19.051 22.0503C18.401 22.7003 17.8854 23.4719 17.5336 24.3212C17.4083 24.6239 17.3046 24.9342 17.2231 25.25C17.085 25.7847 17.4066 26.3302 17.9413 26.4682C18.476 26.6063 19.0215 26.2847 19.1595 25.75C19.2178 25.5245 19.2918 25.3028 19.3814 25.0866C19.6327 24.48 20.0009 23.9288 20.4652 23.4645C20.9295 23.0002 21.4807 22.6319 22.0874 22.3806C22.694 22.1293 23.3442 22 24.0008 22C24.6574 22 25.3076 22.1293 25.9142 22.3806C26.5208 22.6319 27.072 23.0002 27.5363 23.4645C28.0006 23.9288 28.3689 24.48 28.6202 25.0866C28.7097 25.3028 28.7838 25.5245 28.842 25.75C28.9801 26.2847 29.5255 26.6063 30.0603 26.4682C30.595 26.3302 30.9166 25.7847 30.7785 25.25C30.697 24.9342 30.5933 24.6239 30.4679 24.3212C30.1162 23.4719 29.6005 22.7003 28.9505 22.0503C28.3005 21.4002 27.5288 20.8846 26.6796 20.5328C25.8303 20.1811 24.92 20 24.0008 20Z" fill="#344054"/>
<path d="M22.47 23.3045C22.9554 23.1035 23.4755 23 24.0008 23C24.5261 23 25.0462 23.1035 25.5315 23.3045C26.0168 23.5055 26.4578 23.8001 26.8292 24.1716C27.2006 24.543 27.4953 24.984 27.6963 25.4693C27.8116 25.7477 27.8948 26.0376 27.9448 26.3333C28.0369 26.8779 27.67 27.394 27.1255 27.486C26.5809 27.5781 26.0649 27.2112 25.9728 26.6667C25.9478 26.5188 25.9062 26.3738 25.8485 26.2346C25.748 25.992 25.6007 25.7715 25.415 25.5858C25.2293 25.4001 25.0088 25.2528 24.7661 25.1522C24.5235 25.0517 24.2634 25 24.0008 25C23.7381 25 23.4781 25.0517 23.2354 25.1522C22.9928 25.2528 22.7723 25.4001 22.5866 25.5858C22.4009 25.7715 22.2535 25.992 22.153 26.2346C22.0954 26.3738 22.0538 26.5188 22.0288 26.6667C21.9367 27.2112 21.4206 27.5781 20.8761 27.486C20.3315 27.394 19.9647 26.8779 20.0567 26.3333C20.1067 26.0376 20.1899 25.7477 20.3053 25.4693C20.5063 24.984 20.8009 24.543 21.1724 24.1716C21.5438 23.8001 21.9847 23.5055 22.47 23.3045Z" fill="#344054"/>
<path d="M24.0007 30C24.8292 30 25.5007 29.3284 25.5007 28.5C25.5007 27.6716 24.8292 27 24.0007 27C23.1723 27 22.5008 27.6716 22.5008 28.5C22.5008 29.3284 23.1723 30 24.0007 30Z" fill="#344054"/>
</svg>
