<svg width="48" height="48" viewBox="0 0 48 48" fill="none" xmlns="http://www.w3.org/2000/svg">
<rect width="48" height="48" rx="24" fill="#F0F2F5"/>
<path fill-rule="evenodd" clip-rule="evenodd" d="M14 18.6387C14 16.6291 15.6291 15 17.6387 15H25.6259C26.0204 15 26.3414 15.157 26.5678 15.3153C26.7939 15.4733 26.9831 15.6719 27.1368 15.8585C27.4417 16.2285 27.7245 16.6984 27.9651 17.1117C28.0251 17.2148 28.0828 17.3147 28.1386 17.4115C28.3234 17.732 28.4881 18.0176 28.6518 18.2649C28.7329 18.3875 28.8027 18.4833 28.8618 18.5556H30.0007C32.2102 18.5556 34 20.3467 34 22.5556V27.2084L33.4931 26.7578C33.0582 26.3712 32.539 26.1326 32 26.0418V25H30C29.4477 25 29 25.4477 29 26C29 26.3417 29.1713 26.6433 29.4328 26.8237L28.0069 28.0911C27.979 28.1159 27.9517 28.1411 27.925 28.1666C27.3549 27.6206 27 26.8517 27 26C27 24.3431 28.3431 23 30 23H32V22.5556C32 21.4507 31.105 20.5556 30.0007 20.5556H28.5203C28.5063 20.5559 28.4922 20.5559 28.4782 20.5556H16V29C16 30.1046 16.8954 31 18 31H27.0744C27.1828 31.4773 27.4096 31.9348 27.7578 32.3264C27.8906 32.4758 28.035 32.6089 28.1884 32.7253C28.0091 32.8955 27.7668 33 27.5 33H18C15.7909 33 14 31.2091 14 29V18.6387ZM16.0021 18.5556H26.4895L26.3854 18.3751C26.3345 18.2868 26.2848 18.2006 26.2368 18.1181C25.9915 17.6968 25.782 17.3593 25.5934 17.1304C25.5437 17.0701 25.5041 17.0282 25.4748 17H17.6387C16.7615 17 16.0454 17.6892 16.0021 18.5556Z" fill="#344054"/>
<path d="M32.1644 28.2526C31.7855 27.9158 31.2145 27.9158 30.8356 28.2526L29.3356 29.5859C28.9229 29.9528 28.8857 30.5849 29.2526 30.9977C29.5736 31.3588 30.0975 31.4325 30.5 31.1996V34C30.5 34.5523 30.9477 35 31.5 35C32.0523 35 32.5 34.5523 32.5 34V31.1996C32.9025 31.4325 33.4264 31.3588 33.7474 30.9977C34.1143 30.5849 34.0771 29.9528 33.6644 29.5859L32.1644 28.2526Z" fill="#344054"/>
</svg>
