<svg width="48" height="48" viewBox="0 0 48 48" fill="none" xmlns="http://www.w3.org/2000/svg">
<rect width="48" height="48" rx="24" fill="#F0F2F5"/>
<path fill-rule="evenodd" clip-rule="evenodd" d="M24.468 18.1104C25.9402 18.1104 27.1336 19.3039 27.1336 20.7761C27.1336 22.2483 25.9402 23.4418 24.468 23.4418C22.9958 23.4418 21.8023 22.2483 21.8023 20.7761C21.8023 19.3039 22.9958 18.1104 24.468 18.1104ZM25.1336 20.7761C25.1336 20.4085 24.8356 20.1104 24.468 20.1104C24.1003 20.1104 23.8023 20.4085 23.8023 20.7761C23.8023 21.1437 24.1003 21.4418 24.468 21.4418C24.8356 21.4418 25.1336 21.1437 25.1336 20.7761Z" fill="#344054"/>
<path fill-rule="evenodd" clip-rule="evenodd" d="M15.1396 17.9463C15.1396 15.7371 16.9305 13.9463 19.1396 13.9463H29.7963C32.0054 13.9463 33.7963 15.7371 33.7963 17.9463V23.6059C33.7963 24.1509 33.6873 24.6704 33.4899 25.1439L33.2097 27.2037C33.0988 28.0189 32.7528 28.7367 32.253 29.3042C32.2398 29.3456 32.2237 29.3866 32.2047 29.4269L31.257 31.4355C30.1909 33.6953 27.3369 34.4353 25.307 32.9783L16.7172 26.8127C16.6448 26.7607 16.5815 26.7009 16.5274 26.6353C15.6776 25.9017 15.1396 24.8167 15.1396 23.6059V17.9463ZM29.7963 27.6059C30.2576 27.6059 30.7007 27.5278 31.1131 27.3841C30.75 28.3306 29.7058 28.8829 28.6847 28.5841L25.341 27.6059H29.7963ZM17.8394 16.4266C17.4111 16.7934 17.1396 17.3381 17.1396 17.9463V23.6059C17.1396 24.2141 17.4111 24.7588 17.8394 25.1257C17.7131 24.9582 17.6381 24.7498 17.6381 24.5238C17.6381 23.9716 18.0859 23.5238 18.6381 23.5238H20.3038C20.8561 23.5238 21.3038 23.9716 21.3038 24.5238C21.3038 25.0761 20.8561 25.5238 20.3038 25.5238H18.6381C18.6122 25.5238 18.5864 25.5229 18.5609 25.5209C18.7441 25.5762 18.9384 25.6059 19.1396 25.6059H29.7963C29.9975 25.6059 30.1918 25.5762 30.375 25.5209C30.3495 25.5229 30.3238 25.5238 30.2978 25.5238H28.6321C28.0798 25.5238 27.6321 25.0761 27.6321 24.5238C27.6321 23.9716 28.0798 23.5238 28.6321 23.5238H30.2978C30.8501 23.5238 31.2978 23.9716 31.2978 24.5238C31.2978 24.7498 31.2229 24.9582 31.0965 25.1257C31.5248 24.7588 31.7963 24.2141 31.7963 23.6059V17.9463C31.7963 17.3381 31.5248 16.7934 31.0965 16.4266C31.2229 16.594 31.2978 16.8024 31.2978 17.0284C31.2978 17.5807 30.8501 18.0284 30.2978 18.0284H28.6321C28.0798 18.0284 27.6321 17.5807 27.6321 17.0284C27.6321 16.4761 28.0798 16.0284 28.6321 16.0284H30.2978C30.3238 16.0284 30.3495 16.0294 30.375 16.0313C30.1918 15.976 29.9975 15.9463 29.7963 15.9463H19.1396C18.9384 15.9463 18.7441 15.976 18.5609 16.0313C18.5864 16.0294 18.6122 16.0284 18.6381 16.0284H20.3038C20.8561 16.0284 21.3038 16.4761 21.3038 17.0284C21.3038 17.5807 20.8561 18.0284 20.3038 18.0284H18.6381C18.0859 18.0284 17.6381 17.5807 17.6381 17.0284C17.6381 16.8024 17.7131 16.594 17.8394 16.4266ZM29.4078 30.6632C28.9863 30.68 28.5537 30.6297 28.1231 30.5037L23.3395 29.1042L26.4732 31.3535C27.4635 32.0643 28.846 31.7294 29.4078 30.6632Z" fill="#344054"/>
</svg>
