<svg width="14" height="14" viewBox="0 0 14 14" fill="none" xmlns="http://www.w3.org/2000/svg">
<path d="M12.3281 1.894V4.558H9.66406" stroke="#00A351" stroke-width="1.2" stroke-linecap="round" stroke-linejoin="round"/>
<path d="M1.67169 12.1059L1.67169 9.44193L4.33569 9.44193" stroke="#00A351" stroke-width="1.2" stroke-linecap="round" stroke-linejoin="round"/>
<path d="M1.44995 6.99997C1.44995 5.82792 1.821 4.68596 2.50991 3.73776C3.19882 2.78955 4.17023 2.08378 5.28491 1.7216C6.39959 1.35942 7.60032 1.35942 8.715 1.7216C9.82968 2.08379 10.8011 2.78956 11.49 3.73776" stroke="#00A351" stroke-width="1.2" stroke-linecap="round"/>
<path d="M12.5498 6.99998C12.5498 8.17203 12.1788 9.31399 11.4899 10.2622C10.8009 11.2104 9.82954 11.9162 8.71485 12.2783C7.60017 12.6405 6.39945 12.6405 5.28477 12.2783C4.17008 11.9162 3.19868 11.2104 2.50977 10.2622" stroke="#00A351" stroke-width="1.2" stroke-linecap="round"/>
<rect x="1.75098" y="9.54999" width="0.75" height="0.75" fill="#00A351"/>
<rect x="11.501" y="3.62497" width="0.75" height="0.75" fill="#00A351"/>
</svg>
