<svg width="41" height="41" viewBox="0 0 41 41" fill="none" xmlns="http://www.w3.org/2000/svg">
<rect x="1.16675" y="1" width="39" height="39" rx="19.5" fill="white"/>
<rect x="1.16675" y="1" width="39" height="39" rx="19.5" stroke="#E4E7EC"/>
<path d="M24.0002 25.5L25.6668 27.1667L29.0002 23.8333M20.6668 23H17.3335C15.7804 23 15.0038 23 14.3912 23.2537C13.5745 23.592 12.9255 24.241 12.5872 25.0577C12.3335 25.6703 12.3335 26.4469 12.3335 28M23.5835 13.2423C24.8051 13.7368 25.6668 14.9344 25.6668 16.3333C25.6668 17.7322 24.8051 18.9299 23.5835 19.4244M21.9168 16.3333C21.9168 18.1743 20.4244 19.6667 18.5835 19.6667C16.7425 19.6667 15.2502 18.1743 15.2502 16.3333C15.2502 14.4924 16.7425 13 18.5835 13C20.4244 13 21.9168 14.4924 21.9168 16.3333Z" stroke="#344054" stroke-width="2" stroke-linecap="round" stroke-linejoin="round"/>
</svg>
